<svg width="265" height="153" viewBox="0 0 265 153" fill="none" xmlns="http://www.w3.org/2000/svg">
<path d="M21.5546 98.1786C25.1095 97.966 28.5655 96.9253 31.6467 95.1395C34.7279 93.3537 37.3489 90.8723 39.3005 87.8933C42.2438 83.4084 44.2922 77.5541 39.0633 73.8023C37.7933 72.9596 36.4151 72.2923 34.9664 71.8185C33.3889 71.1847 31.7305 70.7746 30.0394 70.6003C21.4144 70.0181 14.3312 79.4085 13.2854 87.1171C11.7545 98.3943 20.0884 110.297 31.689 110.717C39.0633 110.976 47.8608 105.165 50.017 98.0493C51.0952 94.5993 51.7421 89.2949 48.0118 87.1494C43.074 84.314 36.9286 91.0954 33.6404 93.8122C30.5354 96.3889 27.0422 99.0735 25.4682 102.922C22.2985 110.696 27.8077 119.698 34.6969 123.202C42.0281 126.932 52.432 119.17 56.1516 112.992C57.7687 110.297 59.3105 105.23 56.8847 102.48C53.3269 98.4482 45.8447 103.31 42.6642 105.434C36.0014 109.876 28.0988 114.911 32.1525 123.87C32.8386 125.397 33.6919 126.844 34.6969 128.183C36.5728 130.695 39.1065 133.444 42.0713 134.576C48.8419 137.153 57.165 134.059 61.2511 128.247C63.6122 124.927 65.9193 115.526 59.58 114.954C56.4966 114.685 53.8983 116.701 51.3 118.005" stroke="white" stroke-width="2.15624" stroke-linejoin="round"/>
<path d="M62.4155 42.9789C58.8577 49.5231 55.1166 59.6682 59.6124 66.6976C61.4236 69.5222 67.4719 76.3252 71.5256 73.2957C75.2236 70.5357 76.9809 65.048 78.1668 60.7895C80.474 52.5095 82.7381 44.6176 75.1373 38.2567C73.926 37.1952 72.5814 36.2964 71.1375 35.5829C65.9086 33.1464 60.2484 35.8633 55.1058 37.2001" stroke="white" stroke-width="2.15624" stroke-linejoin="round"/>
<path d="M3.31276 47.8629C1.25354 50.2348 1.70634 53.7387 4.04587 57.469C8.03492 63.8407 16.9833 74.072 16.9833 74.072L22.8483 68.0993C18.3702 62.7163 14.2019 57.083 10.3637 51.2266C9.52272 49.8898 7.74387 46.5045 7.92715 44.8118C8.11043 43.1191 9.57665 41.8577 10.5901 40.7688C13.42 37.8783 16.5622 35.311 19.959 33.1142C23.9265 30.4296 28.2605 28.1979 32.3251 25.5673C33.4787 24.845 35.9368 22.8936 37.3815 22.9798C40.4218 23.1739 42.5241 26.7748 43.9796 29.0281C48.0195 35.4911 51.7014 42.1712 55.0087 49.038" stroke="white" stroke-width="2.15624" stroke-linejoin="round"/>
<path d="M72.6792 74.999C79.0401 85.597 86.1881 95.9038 93.239 106.071C95.079 108.744 96.9046 111.429 98.7158 114.124C99.1578 114.771 100.506 116.28 100.441 117.057C100.29 118.825 98.7159 120.442 97.5515 121.606C94.5435 124.636 79.2881 135.697 78.4471 136.42C76.1938 138.339 74.1346 139.848 72.5929 138.953C70.8062 138.079 69.1774 136.913 67.7737 135.503C65.8007 133.196 65.2617 131.255 63.8602 131.805C62.6419 132.29 57.5747 134.468 60.3131 137.487C61.7686 139.083 63.9141 141.476 65.9517 143.395C67.9894 145.314 69.6388 144.15 70.0054 143.729" stroke="white" stroke-width="2.15624" stroke-linejoin="round"/>
<path d="M78.6412 139.449C82.9537 139.924 87.3848 138.371 91.3846 136.819C94.9208 135.439 98.5433 134.188 101.713 132.043C109.12 126.997 114.952 118.027 112.43 108.992C110.26 101.34 105.582 94.6383 99.1471 89.9635C97.0068 88.4972 94.6337 87.4036 92.1285 86.7291C91.3351 86.5011 90.5286 86.3211 89.7135 86.1901C89.2823 86.1362 88.3551 86.5243 88.4198 86.1038C88.6462 84.7238 89.3146 83.6565 89.196 82.1471C88.754 76.7565 84.0965 72.8537 79.8595 70.1799" stroke="white" stroke-width="2.15624" stroke-linejoin="round"/>
<path d="M102.112 134.835C107.751 134.576 112.839 136.83 118.09 138.544C124.558 140.7 131.124 142.77 137.496 145.412C141.959 147.277 146.25 149.724 150.865 151.233" stroke="white" stroke-width="2.15624" stroke-linejoin="round"/>
<path d="M92.8401 83.085C99.9772 85.2412 107.298 86.88 114.586 88.4756C123.825 90.524 132.914 92.1628 142.391 91.7099C147.113 91.462 153.431 91.4728 157.829 89.5537" stroke="white" stroke-width="2.15624" stroke-linejoin="round"/>
<path d="M262.332 24.8663C249.039 19.4757 233.934 17.3195 219.746 15.7562C209.612 14.6781 199.607 13.007 189.418 12.3709C186.292 12.166 182.95 11.4114 179.801 11.6593C173.096 12.1768 166.433 15.7777 160.104 17.8909C153.247 20.1765 146.466 22.7532 139.749 25.3838C136.515 26.6668 132.526 27.5401 129.852 29.9551C124.688 34.5371 121.583 41.3185 118.543 47.3775C115.696 53.0484 112.581 58.5792 109.918 64.304C108.635 66.9993 107.017 70.0612 107.589 73.1662C107.832 74.5488 108.572 75.7949 109.67 76.6701C112.408 78.9557 120.451 81.7696 124.03 79.4301C128.785 76.3575 131.016 71.2256 134.057 66.6651C138.369 60.1964 143.124 53.7277 147.997 47.6363C149.765 45.4153 155.188 39.7228 152.309 36.6718C151.059 35.3457 148.87 35.9494 147.652 36.9413C145.366 38.8172 144.568 42.0192 144.191 44.8116C142.444 57.4256 144.116 78.3628 160.438 80.0231C162.396 80.3327 164.395 80.2853 166.336 79.8829C168.708 79.2145 169.193 76.131 169.57 74.0611C170.326 68.3165 170.115 62.4858 168.945 56.8111C168.718 55.5497 167.867 50.2884 166.142 49.8248C164.999 49.5122 164.212 53.2425 164.115 53.9002C163.533 57.9323 164.837 62.1047 165.851 65.9751C167.64 72.8428 168.567 83.6671 177.171 85.004C179.205 85.2144 181.257 85.1818 183.284 84.907C185.447 84.831 187.574 84.3214 189.537 83.4084C191.693 82.1901 191.909 78.7509 191.941 76.5839C192.038 70.2445 190.13 63.6464 187.499 57.9323C186.594 55.9594 185.688 53.9756 184.664 52.0781C184.578 51.9164 183.855 50.4394 183.586 50.558C181.742 51.345 181.559 53.7923 181.537 55.485C181.473 59.7975 183.251 63.9159 184.912 67.8295C186.378 71.3118 187.974 76.4545 191.585 78.3843C193.742 79.5703 196.706 78.7832 198.97 78.1687C205.073 76.5192 212.609 73.3818 216.22 67.9804C220.705 61.3823 216.846 55.043 212.663 49.6524C211.584 48.24 210.366 45.8358 208.544 45.2428C205.396 44.2402 197.278 46.2024 195.833 49.8356C194.647 52.8113 195.434 56.3044 196.329 59.2369C197.041 61.6195 197.709 64.4226 199.154 66.5034" stroke="white" stroke-width="2.15624" stroke-linejoin="round"/>
<path d="M221.848 61.3284C225.794 58.0294 227.994 53.2209 229.072 48.3047C229.384 46.86 229.072 44.348 229.654 43.0758C229.923 42.4613 230.419 44.1539 230.732 44.7038C231.379 45.6956 231.983 46.7091 232.619 47.7117C234.47 50.6347 236.601 53.3715 238.98 55.8839C246.138 63.4955 254.505 67.8942 264.208 71.6137" stroke="white" stroke-width="2.15624" stroke-linejoin="round"/>
<path d="M153.096 30.2571C156.74 27.2707 162.401 25.1576 167.198 26.1063C167.953 26.1656 168.671 26.4593 169.251 26.9465C169.831 27.4336 170.244 28.0897 170.433 28.8232C170.497 29.1898 169.84 31.788 169.354 31.346C169.053 31.0657 170.982 29.1898 171.241 29.0065C172.236 28.3618 173.369 27.963 174.549 27.8431C175.728 27.7231 176.918 27.8854 178.023 28.3165C180.502 29.1682 183.413 31.5509 183.78 34.2785C183.944 35.3391 183.885 36.4223 183.607 37.459C183.456 37.9765 182.669 39.378 182.734 38.839C182.92 37.6198 183.366 36.4548 184.041 35.4226C184.717 34.3904 185.605 33.5149 186.647 32.8554C188.955 31.3568 193.526 29.8043 195.855 32.1223C197.375 33.6424 197.493 36.1329 196.987 38.1058C196.933 38.3323 196.394 40.1112 195.973 40.0572C195.553 40.0033 196.189 39.0546 196.415 38.6018C196.964 37.4996 197.664 36.4798 198.496 35.5723C199.705 34.2779 201.173 33.2513 202.803 32.5586C204.433 31.866 206.191 31.5227 207.962 31.5509" stroke="white" stroke-width="2.15624" stroke-linejoin="round"/>
<path d="M193.634 9.03971C185.203 5.85925 176.384 2.74347 167.457 1.49285C162.422 0.792072 156.805 0.813624 152.557 4.02643C146.509 8.6947 142.746 16.4572 138.434 22.7103" stroke="white" stroke-width="2.15624" stroke-linejoin="round"/>
</svg>
