<svg width="76" height="151" viewBox="0 0 76 151" fill="none" xmlns="http://www.w3.org/2000/svg">
<path fill-rule="evenodd" clip-rule="evenodd" d="M34.78 43.887C34.2784 49.8096 34.1415 55.7575 34.37 61.697C34.52 67.247 34.93 72.797 35.17 78.337C35.23 79.577 35.36 80.817 35.31 82.057C35.2655 82.429 35.2655 82.8049 35.31 83.177C35.99 83.457 38.14 81.847 38.7 81.497C41.87 79.497 44.8 77.0169 47.83 74.7969C52.58 71.2969 57.23 67.677 61.95 64.157C63.64 62.907 66.44 61.617 67.8 59.997C68.46 59.207 67.98 55.927 67.95 54.887C67.79 50.027 67.81 45.137 67.5 40.277C67.21 35.607 67.14 30.907 66.97 26.277C66.91 24.737 66.97 23.197 66.97 21.647C66.97 21.167 66.97 20.647 66.97 20.207C66.97 19.937 67.26 19.337 66.97 19.387C66.68 19.437 65.91 20.467 65.64 20.747C64.5833 21.8571 63.4212 22.8618 62.17 23.747C57.48 27.187 52.68 30.427 48.17 34.037C43.66 37.647 38.99 39.977 34.78 43.887Z" fill="white"/>
<path d="M24.24 38.5668C28.57 34.1168 69.24 6.00682 70.33 6.40682C73.21 7.52682 75.17 113.877 74.67 114.607C73.52 116.317 40.16 144.807 33.87 146.937C33.57 147.037 28.26 51.8668 27.4 47.3468C27.05 45.5368 26.96 43.1068 25.17 42.0968C22.08 40.3568 21.33 42.5668 21.17 45.4368C20.94 49.6968 21.72 53.8968 22.41 58.0868C24.03 67.9568 24.03 78.0068 24.75 87.9668C25.51 98.6068 27.02 109.187 27.55 119.857C27.79 124.717 28.34 129.577 28.43 134.447C28.43 136.047 28.43 137.657 28.55 139.257C28.55 140.097 29.47 141.907 28.65 141.757C25.0732 141.079 21.4552 140.642 17.82 140.447C16.99 140.447 14.29 140.687 13.73 140.127C9.77998 136.217 8.29 41.4168 8.13 41.2668C7.97 41.1168 1 40.7668 1 40.7668C1 40.7668 6.23001 149.207 7.07001 149.977C7.26001 150.147 12.25 145.447 14.07 143.977" stroke="white" stroke-width="2" stroke-linejoin="round"/>
<path d="M1.05005 38.0669C14.5728 26.7724 28.9082 16.488 43.9401 7.29692C50.5201 3.29692 58.66 -1.8331 66.29 2.8969" stroke="white" stroke-width="2" stroke-linejoin="round"/>
<path d="M59.3 7.17676C53.63 7.43676 48.63 10.1768 43.89 13.0568C36.17 17.8068 28.97 23.4668 21.6 28.7368C18.66 30.8468 15.68 32.8568 12.91 35.1868C12.22 35.7568 10.49 36.8868 10.26 37.8068C10.13 38.3568 11.96 39.1068 12.26 39.2368C14.5991 39.9873 17.008 40.4999 19.45 40.7668" stroke="white" stroke-width="2" stroke-linejoin="round"/>
<path d="M13.79 43.887C14.07 55.887 14.67 68.5369 13.36 80.5469" stroke="white" stroke-width="2" stroke-linejoin="round"/>
<path d="M23.26 136.067C21.99 125.377 21.9 114.627 21.09 103.907" stroke="white" stroke-width="2" stroke-linejoin="round"/>
<path d="M16.66 135.567C16.34 128.047 15.89 120.567 15.77 112.997" stroke="white" stroke-width="2" stroke-linejoin="round"/>
</svg>
