<svg width="232" height="164" viewBox="0 0 232 164" fill="none" xmlns="http://www.w3.org/2000/svg">
<path d="M130.1 109.051C128.632 96.1346 126.293 83.3321 123.1 70.7309C118.21 51.1809 101.71 28.7309 78.5901 35.8909C74.3069 37.1485 70.2157 38.9855 66.43 41.3509C61.9642 44.1534 57.96 47.6314 54.56 51.6609C43.06 65.8509 42.98 86.6609 43.56 103.881C43.86 112.941 45.49 121.991 47.06 130.881C47.4 132.781 47.63 134.691 47.92 136.591C47.9345 137.244 48.0149 137.894 48.16 138.531C50.09 139.441 55.11 137.641 57.39 137.331C64.82 136.331 72.28 135.921 79.75 135.331C99.93 133.751 119.81 130.331 139.93 128.331C151.24 127.171 162.65 126.941 173.93 125.781C183.86 124.781 200.93 128.441 204.35 115.501C206.45 107.691 204.35 84.8909 203.66 82.0209C203.41 81.0209 202.01 72.0209 202.47 72.0209C204.54 72.0709 209.82 78.8209 211.14 80.1409C215.75 84.7309 218.3 89.2509 222.45 94.2609C224.5 96.7409 230.59 106.051 230.13 106.191C224.39 107.991 218.13 106.501 212.23 106.191C204.644 105.867 197.045 106.084 189.49 106.841C156.49 109.651 123.8 114.161 90.82 116.431C82.08 117.031 73.44 118.071 64.69 118.651C61.2813 118.906 57.8895 119.35 54.5301 119.981C53.5646 120.199 52.5858 120.353 51.6 120.441C50.4 117.211 49.23 109.891 48.93 106.301C47.99 94.8109 48.27 85.5209 51.44 74.4409C53.57 67.0009 61.68 44.4409 86.17 40.9309C97.75 39.2409 103.04 56.0409 103.69 59.9809C105.77 72.4809 107.01 85.1309 108.62 97.7009C109.12 101.701 109.51 108.851 109.51 108.851C109.51 108.851 75.07 112.221 63.92 112.291C61.41 112.291 56.98 114.061 55.21 112.121C52.73 109.401 52.8001 105.971 52.7801 102.451C52.7801 94.3509 53.48 83.0009 58.39 76.3709C60.39 73.6309 63.49 70.6309 67.04 70.2609C77.04 69.2609 77.49 82.2609 79.13 88.9009C79.55 90.6009 80.13 93.4209 81.42 94.7209C85.61 98.8709 94.27 94.9509 99.33 96.1109C100.33 96.3409 101.33 98.2209 101.76 99.1109C103.531 102.494 104.554 106.218 104.76 110.031" stroke="white" stroke-width="2" stroke-linejoin="round"/>
<path d="M61.58 138.821C62.12 143.591 62.85 151.211 63.48 155.981C63.53 156.411 63.94 162.051 63.7 162.241C63.46 162.431 53.17 156.381 51.44 154.531C51.36 154.441 54.74 154.261 57.05 154.011C59.19 153.781 61.37 153.731 63.52 153.671C69.73 153.491 75.82 152.381 82.02 152.021C94.1 151.331 106.11 149.851 118.19 149.161C122.19 148.931 136.19 147.511 136.11 148.161C135.94 150.661 131.74 153.931 130.11 155.561C130.01 155.671 127.96 157.671 127.95 157.661C126.82 156.611 126.95 152.851 126.86 151.461C126.42 145.971 127.02 140.181 126.13 134.731" stroke="white" stroke-width="2" stroke-linejoin="round"/>
<path d="M81.95 30.391C81.95 24.391 81.2 17.571 80.75 11.611C80.75 11.311 50.35 14.991 47.09 15.491C38.73 16.781 1 23.411 1 23.411C1 23.411 29.23 21.931 35.59 21.561C52.19 20.561 68.27 19.691 83.8 18.231C97.14 16.981 106.46 16.341 122.4 15.351C131.67 14.781 161 11.661 161.02 11.571C161.04 11.481 127.75 10.151 118.88 9.67097C106.99 9.03097 96.15 8.67098 85.28 8.43098C83 8.38098 75.19 9.06098 73.08 8.78098C71.4 8.56098 78.4 1.00098 78.52 1.00098C78.64 1.00098 82.93 4.56098 84.03 6.37098" stroke="white" stroke-width="2" stroke-linejoin="round"/>
</svg>
