<svg width="24" height="25" viewBox="0 0 24 25" fill="none" xmlns="http://www.w3.org/2000/svg">
<path fill-rule="evenodd" clip-rule="evenodd" d="M6 10.5V7.5C6 4.18629 8.68629 1.5 12 1.5C15.3137 1.5 18 4.18629 18 7.5V10.5C19.6569 10.5 21 11.8431 21 13.5V19.5C21 21.1569 19.6569 22.5 18 22.5H6C4.34315 22.5 3 21.1569 3 19.5V13.5C3 11.8431 4.34315 10.5 6 10.5ZM8 7.5C8 5.29086 9.79086 3.5 12 3.5C14.2091 3.5 16 5.29086 16 7.5V10.5H8V7.5ZM12 14.5C12.5523 14.5 13 14.9477 13 15.5V17.5C13 18.0523 12.5523 18.5 12 18.5C11.4477 18.5 11 18.0523 11 17.5V15.5C11 14.9477 11.4477 14.5 12 14.5Z" fill="#15E675"/>
</svg>
