<svg width="27" height="22" viewBox="0 0 27 22" fill="none" xmlns="http://www.w3.org/2000/svg">
<path fill-rule="evenodd" clip-rule="evenodd" d="M2.91376 22C3.00456 22 3.09144 21.964 3.15569 21.8999C3.21976 21.8359 3.25578 21.7489 3.25578 21.6583V8.30446C3.25578 6.90226 3.828 5.6498 4.74064 4.72399C5.69422 3.78459 6.96118 3.25365 8.3098 3.25365C10.3278 3.25365 12.1386 4.44313 12.9356 6.28032C12.9704 6.36205 12.9369 6.45666 12.8584 6.49827C12.1064 6.8963 8.48063 8.81408 7.3117 9.43236C7.08765 9.55097 6.9475 9.78336 6.9475 10.0366C6.9475 12.4219 6.9475 14.8371 6.9475 17.1671C6.9475 17.7253 7.04287 18.2563 7.22001 18.7464C7.45158 19.4407 7.86033 20.0669 8.37792 20.5842C8.88193 21.1015 9.50856 21.4963 10.217 21.7413C10.7483 21.9184 11.2795 22 11.8517 22H16.2775C16.3682 22 16.4553 21.964 16.5194 21.8999C16.5835 21.8359 16.6197 21.7489 16.6197 21.6583C16.6197 17.3068 16.6197 12.9554 16.6197 8.60394L23.7441 5.00991V21.6583C23.7441 21.7489 23.7803 21.8359 23.8445 21.8999C23.9085 21.964 23.9955 22 24.0862 22C24.7117 22 26.0325 22 26.6579 22C26.8469 22 27 21.8471 27 21.6583C27 19.2628 27 4.96979 27 0.851295C27 0.613997 26.8769 0.393597 26.6747 0.269194C26.4725 0.144636 26.2202 0.133854 26.0081 0.240547C23.3116 1.59814 16.0474 5.25491 16.0474 5.25491C15.6251 4.19305 14.9986 3.24007 14.1812 2.42321C12.6145 0.857653 10.5167 0 8.30982 0C6.48443 0 4.71348 0.585419 3.25579 1.70167C1.19883 3.2809 0 5.7042 0 8.30446V21.6583C0 21.7489 0.0360998 21.8359 0.100277 21.8999C0.164334 21.964 0.251385 22 0.342101 22H2.91376ZM13.1123 10.031C13.1654 10.0029 13.2293 10.0045 13.2808 10.0354C13.3324 10.0663 13.3638 10.122 13.3638 10.1819C13.3638 12.9266 13.3638 15.66 13.3638 18.4045C13.3638 18.4951 13.3277 18.5822 13.2636 18.6461C13.1995 18.7102 13.1124 18.7464 13.0218 18.7464C12.5682 18.7464 11.8245 18.7464 11.8245 18.7464C11.3886 18.7464 10.9799 18.5965 10.6666 18.2835C10.3668 17.984 10.217 17.5891 10.217 17.1671V11.7771C10.217 11.6508 10.2867 11.5347 10.3983 11.4753C10.932 11.1913 12.498 10.358 13.1123 10.031H13.1123Z" fill="#17FF82"/>
</svg>
