<svg width="24" height="25" viewBox="0 0 24 25" fill="none" xmlns="http://www.w3.org/2000/svg">
<path d="M4 16.5C4 15.9477 4.44772 15.5 5 15.5H13C13.5523 15.5 14 15.9477 14 16.5C14 17.0523 13.5523 17.5 13 17.5H5C4.44772 17.5 4 17.0523 4 16.5Z" fill="black"/>
<path d="M16 15.5C15.4477 15.5 15 15.9477 15 16.5C15 17.0523 15.4477 17.5 16 17.5H18C18.5523 17.5 19 17.0523 19 16.5C19 15.9477 18.5523 15.5 18 15.5H16Z" fill="black"/>
<path fill-rule="evenodd" clip-rule="evenodd" d="M1 7C1 4.79086 2.79086 3 5 3H19C21.2091 3 23 4.79086 23 7V18C23 20.2091 21.2091 22 19 22H5C2.79086 22 1 20.2091 1 18V7ZM5 5C3.89543 5 3 5.89543 3 7V7.5H21V7C21 5.89543 20.1046 5 19 5H5ZM21 9.5H3V18C3 19.1046 3.89543 20 5 20H19C20.1046 20 21 19.1046 21 18V9.5Z" fill="black"/>
</svg>
