<svg width="24" height="24" viewBox="0 0 24 24" fill="none" xmlns="http://www.w3.org/2000/svg">
<path fill-rule="evenodd" clip-rule="evenodd" d="M5.52511 12.836C6.17582 13.5089 7.13676 13.7534 8.01345 13.5009C7.35648 14.1339 7.08769 15.0884 7.34515 15.9884L8.46106 19.8893C9.03538 21.897 11.6723 22.3574 12.893 20.6631L21.9566 8.08333C23.2165 6.33465 21.8212 3.91783 19.6768 4.13459L4.25056 5.69398C2.17292 5.90401 1.25318 8.41785 2.70475 9.91909L5.52511 12.836ZM9.47138 14.8848L19.3238 8.31614L11.2703 19.494C11.0262 19.8329 10.4988 19.7408 10.3839 19.3392L9.26802 15.4383C9.2082 15.2292 9.29042 15.0054 9.47138 14.8848ZM7.54397 11.5464L18.1588 6.29824L4.45171 7.68384L4.35114 6.68891L4.45171 7.68384C4.03618 7.72585 3.85224 8.22862 4.14255 8.52886L6.96292 11.4457C7.11409 11.6021 7.34901 11.6428 7.54397 11.5464Z" fill="#121C25"/>
</svg>
