<svg width="49" height="48" viewBox="0 0 49 48" fill="none" xmlns="http://www.w3.org/2000/svg">
<path d="M9.42668 9C8.79 9.25608 8.2265 9.57772 7.71492 9.98174C7.31356 10.2987 6.94238 10.6481 6.6056 11.0258C4.5 13.3875 4.5 16.925 4.5 24C4.5 31.075 4.5 34.6124 6.6056 36.9742C6.94238 37.352 7.31356 37.7012 7.71492 38.0182C10.2243 40 13.9828 40 21.5 40H27.5C33.4846 40 37.0136 40 39.5 39" stroke="black" stroke-width="1.5" stroke-linecap="round" stroke-linejoin="round"/>
<path d="M16.5 8.03156C17.9554 8 19.6087 8 21.5 8H27.5C35.0172 8 38.7758 8 41.285 9.98174C41.6864 10.2987 42.0576 10.6481 42.3944 11.0258C44.5 13.3875 44.5 16.925 44.5 24C44.5 28.6252 44.5 31.7386 43.9116 34" stroke="black" stroke-width="1.5" stroke-linecap="round" stroke-linejoin="round"/>
<path d="M37.5196 24H37.5016" stroke="black" stroke-width="2" stroke-linecap="round" stroke-linejoin="round"/>
<path d="M11.5 24H11.4821" stroke="black" stroke-width="2" stroke-linecap="round" stroke-linejoin="round"/>
<path d="M27.9876 27.4844C27.079 28.4188 25.8084 28.9992 24.4024 28.9992C21.641 28.9992 19.4023 26.7606 19.4023 23.9992C19.4023 22.5932 19.9828 21.3226 20.9172 20.414" stroke="black" stroke-width="1.5" stroke-linecap="round"/>
<path d="M4.5 4L44.5 44" stroke="black" stroke-width="1.5" stroke-linecap="round"/>
</svg>
