<svg width="55" height="40" viewBox="0 0 55 40" fill="none" xmlns="http://www.w3.org/2000/svg">
<path fill-rule="evenodd" clip-rule="evenodd" d="M21.3503 14.4181L21.322 25.6109L33.9487 25.6058C34.1743 23.2981 33.9796 19.879 33.9788 17.4444C33.9762 12.2279 34.158 13.2621 46.2033 13.2621C48.4552 13.2621 52.3443 13.4902 54.4015 13.202C54.7617 4.76794 53.5294 0.212579 44.7986 0.206576L39.1713 0.199719C38.2331 0.192001 38.1919 0.0565067 37.5814 0.564182L29.6935 7.78226C29.1181 8.3311 28.1765 8.7273 28.1336 9.879C28.089 11.0684 28.3652 12.5752 27.8103 13.455C26.8387 14.9926 23.3742 14.2697 21.3512 14.4181H21.3503Z" fill="#D99238"/>
<path fill-rule="evenodd" clip-rule="evenodd" d="M0.73645 13.1878C2.52103 13.4545 21.1764 13.2547 25.3133 13.2718C27.5421 13.2812 27.0696 12.1964 27.043 10.0542C27.0275 8.7859 26.4573 8.70101 24.9445 7.26974L17.1699 0.294348C16.6082 0.102255 8.33186 0.161425 7.46315 0.298635C4.66922 0.737706 2.72771 2.49142 1.72093 4.39348C0.193616 7.27917 0.979998 9.78925 0.737309 13.1878H0.73645Z" fill="#D99238"/>
<path fill-rule="evenodd" clip-rule="evenodd" d="M27.0489 26.9383L0.734619 26.9057C1.10766 31.6909 -0.00459863 34.4968 3.04917 37.5918C5.93486 40.5152 9.35395 39.95 13.887 39.9509C18.8626 39.9509 16.452 40.3437 22.2774 35.3192C23.5466 34.225 24.5268 33.2585 25.6725 32.2174C27.7366 30.3419 26.8473 31.01 27.0497 26.9391L27.0489 26.9383Z" fill="#D99238"/>
<path fill-rule="evenodd" clip-rule="evenodd" d="M54.4031 26.9568L28.1609 26.9036C27.9551 31.0731 27.9937 30.8072 29.4198 32.121L38.0092 39.8733C38.6318 40.0937 40.5038 39.9505 41.2859 39.9505C46.0222 39.9505 49.0511 40.4908 52.0311 37.6694C54.7856 35.0616 54.5738 31.4864 54.4031 26.955V26.9568Z" fill="#D99238"/>
<path fill-rule="evenodd" clip-rule="evenodd" d="M35.121 25.7426C37.1912 25.854 53.2456 25.9106 54.4213 25.6731L54.423 14.4862C52.0201 14.2058 40.8598 14.3867 37.5968 14.3885C34.6802 14.3902 35.1193 14.0737 35.1193 18.8504C35.1193 21.1383 35.0799 23.4615 35.1202 25.7426H35.121Z" fill="#D99238"/>
<path fill-rule="evenodd" clip-rule="evenodd" d="M20.046 25.5712L20.0468 14.5919L0.815186 14.5164L0.883789 25.657L20.046 25.5712Z" fill="#D99238"/>
<path fill-rule="evenodd" clip-rule="evenodd" d="M19.0614 39.963L36.0806 39.9545C35.7333 39.102 27.878 32.2244 27.5864 32.0709C26.7769 32.6069 19.4533 39.2856 19.0614 39.963Z" fill="#D99238"/>
<path fill-rule="evenodd" clip-rule="evenodd" d="M27.5864 8.08949C27.6199 8.07148 35.7495 1.06436 36.096 0.19136L19.064 0.209371C19.4439 0.897992 26.8867 7.63584 27.5864 8.09035V8.08949Z" fill="#D99238"/>
<path fill-rule="evenodd" clip-rule="evenodd" d="M20.0459 25.5705L0.883727 25.6563L0.815979 14.5157L20.0468 14.5912C19.7355 14.0698 19.3007 14.297 17.9269 14.2987C14.3268 14.3056 2.51652 14.1058 0.783391 14.3596C0.502969 15.0928 0.502971 25.0723 0.787681 25.7935C2.41533 26.0542 14.2874 25.8715 17.7502 25.8681C18.161 25.8681 18.5838 25.8801 18.9885 25.8775C20.2431 25.8706 19.8478 25.796 20.045 25.5696L20.0459 25.5705Z" fill="#E7C797"/>
<path fill-rule="evenodd" clip-rule="evenodd" d="M33.9486 25.6062L21.3219 25.6113L21.3502 14.4184C21.032 14.6243 21.0715 14.1552 21.1135 15.6868C21.171 17.7792 20.9428 24.8755 21.1795 25.7863C21.3776 25.8343 31.5886 26.035 33.2188 25.89C33.9014 25.8291 33.7599 25.7854 33.9495 25.6062H33.9486Z" fill="#E7C797"/>
</svg>
