<svg width="24" height="24" viewBox="0 0 24 24" fill="none" xmlns="http://www.w3.org/2000/svg">
<path fill-rule="evenodd" clip-rule="evenodd" d="M12.6325 2.15683C12.2219 2.01999 11.7781 2.01999 11.3675 2.15683L3.36754 4.8235C2.55086 5.09573 2 5.86001 2 6.72087V9.00011C2 10.1047 2.89543 11.0001 4 11.0001H5V16.0001H4C2.89543 16.0001 2 16.8955 2 18.0001V20.0001C2 21.1047 2.89543 22.0001 4 22.0001H20C21.1046 22.0001 22 21.1047 22 20.0001V18.0001C22 16.8955 21.1046 16.0001 20 16.0001H19V11.0001H20C21.1046 11.0001 22 10.1047 22 9.00011V6.72087C22 5.86001 21.4491 5.09573 20.6325 4.8235L12.6325 2.15683ZM17 16.0001V11.0001H15V16.0001H17ZM13 16.0001V11.0001H11V16.0001H13ZM9 16.0001V11.0001H7V16.0001H9ZM4 18.0001V20.0001H20V18.0001H4ZM4 9.00011L4 6.72087L12 4.0542L20 6.72087V9.00011H4Z" fill="#17FF82"/>
</svg>
