<svg width="18" height="18" viewBox="0 0 18 18" fill="none" xmlns="http://www.w3.org/2000/svg">
<path fill-rule="evenodd" clip-rule="evenodd" d="M10.5 1.5C8.84315 1.5 7.5 2.84315 7.5 4.5V6H4.5C2.84315 6 1.5 7.34315 1.5 9V13.5C1.5 15.1569 2.84315 16.5 4.5 16.5H7.5C9.15685 16.5 10.5 15.1569 10.5 13.5V12H13.5C15.1569 12 16.5 10.6569 16.5 9V4.5C16.5 2.84315 15.1569 1.5 13.5 1.5H10.5ZM10.5 10.5H13.5C14.3284 10.5 15 9.82843 15 9V4.5C15 3.67157 14.3284 3 13.5 3H10.5C9.67157 3 9 3.67157 9 4.5V6.40135C9.8967 6.92006 10.5 7.88958 10.5 9V10.5ZM3 9C3 8.17157 3.67157 7.5 4.5 7.5H7.5C8.32843 7.5 9 8.17157 9 9V13.5C9 14.3284 8.32843 15 7.5 15H4.5C3.67157 15 3 14.3284 3 13.5V9Z" fill="white"/>
</svg>
