<svg width="24" height="25" viewBox="0 0 24 25" fill="none" xmlns="http://www.w3.org/2000/svg">
<path d="M21.7071 8.20711C22.0976 7.81658 22.0976 7.18342 21.7071 6.79289L18.7071 3.79289C18.3166 3.40237 17.6834 3.40237 17.2929 3.79289C16.9024 4.18342 16.9024 4.81658 17.2929 5.20711L18.5858 6.5L3 6.5C2.44772 6.5 2 6.94772 2 7.5C2 8.05229 2.44772 8.5 3 8.5L18.5858 8.5L17.2929 9.79289C16.9024 10.1834 16.9024 10.8166 17.2929 11.2071C17.6834 11.5976 18.3166 11.5976 18.7071 11.2071L21.7071 8.20711Z" fill="black"/>
<path d="M2.29289 18.2071C1.90237 17.8166 1.90237 17.1834 2.29289 16.7929L5.29289 13.7929C5.68342 13.4024 6.31658 13.4024 6.70711 13.7929C7.09763 14.1834 7.09763 14.8166 6.70711 15.2071L5.41421 16.5L21 16.5C21.5523 16.5 22 16.9477 22 17.5C22 18.0523 21.5523 18.5 21 18.5L5.41421 18.5L6.70711 19.7929C7.09763 20.1834 7.09763 20.8166 6.70711 21.2071C6.31658 21.5976 5.68342 21.5976 5.29289 21.2071L2.29289 18.2071Z" fill="black"/>
</svg>
