<svg width="20" height="20" viewBox="0 0 20 20" fill="none" xmlns="http://www.w3.org/2000/svg">
<path fill-rule="evenodd" clip-rule="evenodd" d="M16 0C13.7909 0 12 1.79086 12 4C12 4.17082 12.0107 4.33914 12.0315 4.50432C11.8869 4.62045 11.6985 4.76747 11.4788 4.92902C10.9429 5.32314 10.2538 5.77943 9.57868 6.09309C8.99866 6.36254 8.30204 6.59639 7.73147 6.76609C7.45014 6.84976 7.20735 6.91553 7.03572 6.96018C6.95002 6.98247 6.8824 6.99941 6.83697 7.01059L6.78608 7.02298L6.77415 7.02583L6.77175 7.0264C6.74671 7.03227 6.72194 7.03908 6.69782 7.0467C5.98653 6.39658 5.03958 6 4 6C1.79086 6 0 7.79086 0 10C0 12.2091 1.79086 14 4 14C5.03956 14 5.98649 13.6034 6.69778 12.9533C6.73402 12.9648 6.77128 12.9743 6.80948 12.9817L6.81057 12.9819L6.82053 12.9839L6.86628 12.9934C6.90782 13.0021 6.97066 13.0158 7.05117 13.0344C7.21245 13.0717 7.44304 13.1286 7.71409 13.2056C8.26329 13.3617 8.94737 13.5917 9.55279 13.8944C10.165 14.2005 10.8643 14.6641 11.4305 15.0694C11.665 15.2373 11.8705 15.3907 12.0295 15.5118C12.01 15.6718 12 15.8347 12 16C12 18.2091 13.7909 20 16 20C18.2091 20 20 18.2091 20 16C20 13.7909 18.2091 12 16 12C14.6938 12 13.5339 12.6261 12.8039 13.5945C12.737 13.5456 12.6671 13.495 12.5946 13.4431C12.0026 13.0193 11.2019 12.4829 10.4472 12.1056C9.68579 11.7249 8.86987 11.4549 8.26078 11.2818C8.1033 11.2371 7.95757 11.1982 7.82766 11.1651C7.93973 10.7965 8 10.4053 8 10C8 9.58922 7.93808 9.19291 7.82307 8.81988C7.96473 8.78102 8.12635 8.73523 8.30163 8.6831C8.90876 8.50253 9.71213 8.23638 10.4213 7.90691C11.2695 7.51287 12.0805 6.96917 12.6637 6.54021C12.717 6.501 12.7687 6.46254 12.8187 6.42502C13.5495 7.38233 14.7026 8 16 8C18.2091 8 20 6.20914 20 4C20 1.79086 18.2091 0 16 0ZM14 4C14 2.89543 14.8954 2 16 2C17.1046 2 18 2.89543 18 4C18 5.10457 17.1046 6 16 6C14.8954 6 14 5.10457 14 4ZM2 10C2 8.89543 2.89543 8 4 8C5.10457 8 6 8.89543 6 10C6 11.1046 5.10457 12 4 12C2.89543 12 2 11.1046 2 10ZM14 16C14 14.8954 14.8954 14 16 14C17.1046 14 18 14.8954 18 16C18 17.1046 17.1046 18 16 18C14.8954 18 14 17.1046 14 16Z" fill="white"/>
</svg>
