<svg width="62" height="62" viewBox="0 0 62 62" fill="none" xmlns="http://www.w3.org/2000/svg">
<mask id="mask0_135_5563" style="mask-type:luminance" maskUnits="userSpaceOnUse" x="0" y="0" width="62" height="62">
<path d="M0 0H62V62H0V0Z" fill="white"/>
</mask>
<g mask="url(#mask0_135_5563)">
<g opacity="0.214127">
<path d="M30.8788 2.22388C46.4316 2.22388 59.0593 14.8516 59.0593 30.4044C59.0593 45.9572 46.4316 58.5849 30.8788 58.5849C15.3259 58.5849 2.69824 45.9572 2.69824 30.4044C2.69824 14.8516 15.3259 2.22388 30.8788 2.22388Z" fill="#15E675"/>
</g>
<g opacity="0.685543">
<path d="M30.8791 8.43347C43.0895 8.43347 53.0035 18.3474 53.0035 30.5579C53.0035 42.7684 43.0895 52.6823 30.8791 52.6823C18.6686 52.6823 8.75464 42.7684 8.75464 30.5579C8.75464 18.3474 18.6686 8.43347 30.8791 8.43347Z" fill="#11BF62"/>
</g>
<path d="M30.879 8.99548C42.787 8.99548 52.4554 18.6639 52.4554 30.5719C52.4554 42.48 42.787 52.1484 30.879 52.1484C18.9709 52.1484 9.30249 42.48 9.30249 30.5719C9.30249 18.6639 18.9709 8.99548 30.879 8.99548Z" fill="#15E675"/>
<path d="M21.0098 31.5444L27.2461 37.6597L39.8398 24.6421" stroke="white" stroke-width="3.63281" stroke-linecap="round" stroke-linejoin="round"/>
</g>
</svg>
