<svg width="24" height="25" viewBox="0 0 24 25" fill="none" xmlns="http://www.w3.org/2000/svg">
<path d="M12 13.5C14.2091 13.5 16 11.7091 16 9.5C16 7.29086 14.2091 5.5 12 5.5C9.79086 5.5 8 7.29086 8 9.5C8 11.7091 9.79086 13.5 12 13.5Z" fill="#15E675"/>
<path d="M6.26199 18.5C4.84205 21.1701 9.54234 22.5 12 22.5C14.4577 22.5 19.158 21.1701 17.738 18.5C16.6702 16.4921 14.5104 14.5 12 14.5C9.48962 14.5 7.3298 16.4921 6.26199 18.5Z" fill="#15E675"/>
<path d="M7.5 12.5C7.5 13.6046 6.60457 14.5 5.5 14.5C4.39543 14.5 3.5 13.6046 3.5 12.5C3.5 11.3954 4.39543 10.5 5.5 10.5C6.60457 10.5 7.5 11.3954 7.5 12.5Z" fill="#15E675"/>
<path d="M2.89573 19.9446C2.65019 20.4393 2.05011 20.6413 1.55541 20.3957C1.06071 20.1502 0.858725 19.5501 1.10427 19.0554C1.47165 18.3152 2.02773 17.5721 2.72725 17.0034C3.42704 16.4346 4.32377 16 5.34717 16C5.89946 16 6.34717 16.4477 6.34717 17C6.34717 17.5523 5.89946 18 5.34717 18C4.90619 18 4.44078 18.188 3.9888 18.5554C3.53655 18.923 3.15124 19.4298 2.89573 19.9446Z" fill="#15E675"/>
<path d="M20.8101 12.5C20.8101 13.6046 19.9146 14.5 18.8101 14.5C17.7055 14.5 16.8101 13.6046 16.8101 12.5C16.8101 11.3954 17.7055 10.5 18.8101 10.5C19.9146 10.5 20.8101 11.3954 20.8101 12.5Z" fill="#15E675"/>
<path d="M22.9001 19.0554C23.1457 19.5501 22.9437 20.1502 22.449 20.3957C21.9543 20.6413 21.3542 20.4393 21.1087 19.9446C20.8532 19.4298 20.4678 18.923 20.0156 18.5554C19.5636 18.188 19.0982 18 18.6572 18C18.1049 18 17.6572 17.5523 17.6572 17C17.6572 16.4477 18.1049 16 18.6572 16C19.6806 16 20.5774 16.4346 21.2772 17.0034C21.9767 17.5721 22.5328 18.3152 22.9001 19.0554Z" fill="#15E675"/>
</svg>
