<svg width="24" height="25" viewBox="0 0 24 25" fill="none" xmlns="http://www.w3.org/2000/svg">
<path fill-rule="evenodd" clip-rule="evenodd" d="M18.2898 5.5861L16.7423 4.89962L13.1157 3.44664C12.3996 3.15971 11.6004 3.15971 10.8843 3.44664L7.25769 4.89962L5.71016 5.5861C4.68715 6.03991 3.99991 7.02408 4 8.14323C4.00017 10.1172 4.15023 13.2659 4.99378 15.3496C6.0707 18.0099 8.96609 20.1492 10.679 21.2307C11.4913 21.7437 12.5087 21.7437 13.321 21.2307C15.0339 20.1492 17.9293 18.0099 19.0062 15.3496C19.8498 13.2659 19.9998 10.1172 20 8.14323C20.0001 7.02408 19.3129 6.03991 18.2898 5.5861ZM14.6961 11.7067C15.0866 11.3162 15.0866 10.683 14.6961 10.2925C14.3056 9.90198 13.6724 9.90198 13.2819 10.2925L11.3431 12.2312L11.0613 11.9493C10.6707 11.5588 10.0376 11.5588 9.64705 11.9493C9.25652 12.3399 9.25652 12.973 9.64705 13.3636L10.636 14.3526C11.0266 14.7431 11.6597 14.7431 12.0503 14.3526L14.6961 11.7067Z" fill="#15E675"/>
</svg>
