<svg width="24" height="25" viewBox="0 0 24 25" fill="none" xmlns="http://www.w3.org/2000/svg">
<path fill-rule="evenodd" clip-rule="evenodd" d="M13 2.5H7C5.34315 2.5 4 3.84315 4 5.5V19.5C4 21.1569 5.34315 22.5 7 22.5H17C18.6569 22.5 20 21.1569 20 19.5V10.5H17C14.7909 10.5 13 8.70914 13 6.5V2.5ZM7 12.5C7 11.9477 7.44772 11.5 8 11.5H16C16.5523 11.5 17 11.9477 17 12.5C17 13.0523 16.5523 13.5 16 13.5H8C7.44772 13.5 7 13.0523 7 12.5ZM8 16.5C7.44772 16.5 7 16.9477 7 17.5C7 18.0523 7.44772 18.5 8 18.5H16C16.5523 18.5 17 18.0523 17 17.5C17 16.9477 16.5523 16.5 16 16.5H8Z" fill="#15E675"/>
<path d="M19.7965 8.5C19.6797 8.1993 19.5143 7.91716 19.3047 7.6656L15.8995 3.57945C15.6469 3.27634 15.3405 3.02989 15 2.84941V6.5C15 7.60457 15.8954 8.5 17 8.5H19.7965Z" fill="#15E675"/>
</svg>
