<svg width="24" height="24" viewBox="0 0 24 24" fill="none" xmlns="http://www.w3.org/2000/svg">
<path d="M18.0097 3.00642C18.624 3.26906 19.1835 3.64804 19.6569 4.12141C20.1302 4.59477 20.5092 5.15425 20.7719 5.76862C21.0345 6.38304 21.1761 7.04133 21.1868 7.7064C21.1975 8.37157 21.0772 9.03061 20.8308 9.64537C20.743 9.8644 20.6399 10.0762 20.5223 10.2793C20.2456 10.7573 19.6338 10.9204 19.1558 10.6437C18.6779 10.367 18.5147 9.75518 18.7914 9.27722C18.861 9.15709 18.9222 9.03154 18.9743 8.90138C19.1207 8.5362 19.1936 8.1413 19.1871 7.73866C19.1806 7.33593 19.0947 6.93348 18.9328 6.55478C18.7709 6.17604 18.5365 5.82949 18.2427 5.53562C17.9488 5.24175 17.6022 5.00734 17.2235 4.84543C16.8448 4.68354 16.4423 4.59772 16.0396 4.59122C15.637 4.58472 15.2421 4.65761 14.8769 4.80396C14.7467 4.85612 14.6212 4.91728 14.5011 4.98683C14.0231 5.26355 13.4113 5.1004 13.1346 4.62244C12.8579 4.14448 13.021 3.5327 13.499 3.25598C13.7021 3.1384 13.9139 3.03527 14.1329 2.94749C14.7477 2.70112 15.4067 2.58075 16.0719 2.59148C16.7369 2.60221 17.3952 2.74376 18.0097 3.00642Z" fill="#15E675"/>
<path d="M4.39004 4.05038L4.92558 3.51485C6.09715 2.34327 7.99664 2.34327 9.16822 3.51484L10.0971 4.44372C11.052 5.39867 11.2512 6.87397 10.5836 8.04795L10.5288 8.14448C9.99393 9.08503 9.99647 10.2489 10.6308 11.1254C10.9469 11.5621 11.3039 12.0145 11.6431 12.3537C11.9823 12.6929 12.4347 13.0499 12.8714 13.366C13.7479 14.0003 14.9117 14.0028 15.8523 13.468L15.9488 13.4131C17.1228 12.7456 18.5981 12.9447 19.553 13.8997L20.4819 14.8286C21.6535 16.0001 21.6535 17.8996 20.4819 19.0712L19.9464 19.6067C19.3838 20.1693 18.6174 20.4828 17.8437 20.2969C16.1905 19.8995 13.0046 18.6649 9.16822 14.8286C5.33188 10.9922 4.09725 7.80631 3.69992 6.15303C3.51399 5.37941 3.82743 4.61299 4.39004 4.05038Z" fill="#15E675"/>
<path d="M17.6213 6.20719C17.3219 5.90779 16.9593 5.68512 16.5599 5.54847C16.1614 5.41211 15.7389 5.36547 15.3193 5.40067C14.9002 5.43585 14.4893 5.55213 14.1077 5.73579C13.8885 5.84132 13.6801 5.96853 13.4858 6.1143C13.044 6.44567 12.9544 7.07247 13.2858 7.5143C13.6172 7.95613 14.244 8.04567 14.6858 7.7143C14.7782 7.64497 14.8755 7.58588 14.9753 7.53785C15.1497 7.45388 15.3242 7.40729 15.4866 7.39367C15.6486 7.38007 15.7923 7.39965 15.9124 7.44075C16.0317 7.48156 16.1298 7.5441 16.2071 7.62141C16.2844 7.69871 16.347 7.79685 16.3878 7.91611C16.4289 8.03622 16.4484 8.1799 16.4348 8.34191C16.4212 8.50428 16.3746 8.67883 16.2907 8.85326C16.2426 8.95301 16.1835 9.05029 16.1142 9.14273C15.7828 9.58455 15.8724 10.2114 16.3142 10.5427C16.756 10.8741 17.3828 10.7846 17.7142 10.3427C17.86 10.1484 17.9872 9.93998 18.0927 9.72077C18.2764 9.33925 18.3927 8.92834 18.4278 8.50917C18.463 8.08964 18.4164 7.66708 18.28 7.2686C18.1434 6.86926 17.9207 6.50659 17.6213 6.20719Z" fill="#15E675"/>
</svg>
