<svg width="860" height="883" viewBox="0 0 860 883" fill="none" xmlns="http://www.w3.org/2000/svg">
<path fill-rule="evenodd" clip-rule="evenodd" d="M0 0H860V883H0V0ZM119.703 460.47C139.878 451.47 163.529 460.529 172.53 480.703C216.265 578.737 319.746 631 429.062 631C538.366 631 642.689 578.712 687.618 480.377C696.798 460.284 720.53 451.437 740.623 460.618C760.716 469.798 769.563 493.53 760.382 513.623C699.311 647.288 561.384 711 429.062 711C296.754 711 159.235 647.263 99.4703 513.297C90.4699 493.122 99.5285 469.471 119.703 460.47ZM252.902 276.017C233.572 276.071 217.946 291.785 218 311.115C218.054 330.445 233.768 346.071 253.098 346.017L608.098 345.022C627.428 344.968 643.054 329.254 643 309.924C642.946 290.595 627.232 274.968 607.902 275.023L252.902 276.017Z" fill="black"/>
</svg>
