<svg width="22" height="20" viewBox="0 0 22 20" fill="none" xmlns="http://www.w3.org/2000/svg">
<path fill-rule="evenodd" clip-rule="evenodd" d="M10.5433 0L4.29643 0.390429C2.8087 0.483412 1.49609 1.39593 0.890692 2.75809L0.344783 3.98638C-0.244054 5.31126 -0.0698775 6.85106 0.800029 8.01093L1.05832 8.35532L1.41415 16.1836C1.51126 18.3199 3.27151 20.002 5.41003 20.002H15.6766C17.8151 20.002 19.5753 18.3199 19.6724 16.1836L20.0218 8.4985C20.9731 7.60917 21.3237 6.22184 20.867 4.96597L20.1545 3.00658C19.6108 1.5114 18.2327 0.480588 16.6448 0.381346L10.5433 0ZM3.41209 16.0928L3.10926 9.43064C3.96586 9.53154 4.85 9.33266 5.59799 8.834L5.70186 8.76476C6.2666 8.38826 6.98979 8.34324 7.59688 8.64678L8.75444 9.22556C9.88055 9.78861 11.206 9.78861 12.3321 9.22556L13.4897 8.64678C14.0968 8.34324 14.82 8.38826 15.3847 8.76476L15.4886 8.834C16.2366 9.33266 17.1207 9.53154 17.9773 9.43064L17.6745 16.0928C17.6259 17.1609 16.7458 18.002 15.6766 18.002H13.6301L13.8322 15.5764C13.9926 13.6522 12.4741 12.002 10.5433 12.002C8.61246 12.002 7.09401 13.6522 7.25436 15.5764L7.45649 18.002H5.41003C4.34077 18.002 3.46064 17.1609 3.41209 16.0928ZM16.598 7.1699C17.1704 7.55152 17.9162 7.55152 18.4886 7.1699C18.9855 6.83866 19.1915 6.21066 18.9874 5.64946L18.2749 3.69007C18.0031 2.94248 17.314 2.42707 16.5201 2.37745L10.5433 2.0039L4.42118 2.38653C3.67732 2.43303 3.02102 2.88929 2.71832 3.57036L2.17241 4.79866C1.87799 5.4611 1.96508 6.231 2.40003 6.81094L2.72831 7.24864C3.28028 7.54941 3.95869 7.52317 4.48859 7.1699L4.59245 7.10066C5.75438 6.32604 7.24228 6.23341 8.49131 6.85792L9.64886 7.4367C10.2119 7.71823 10.8747 7.71823 11.4377 7.4367L12.5953 6.85792C13.8443 6.23341 15.3322 6.32604 16.4941 7.10066L16.598 7.1699ZM11.8391 15.4103L11.6232 18.002H9.46342L9.24745 15.4103C9.18427 14.6522 9.78254 14.002 10.5433 14.002C11.304 14.002 11.9023 14.6522 11.8391 15.4103Z" fill="#B6BABD"/>
</svg>
